<?xml version="1.0" encoding="iso-8859-1"?>
<!-- Generator: Adobe Illustrator 19.0.0, SVG Export Plug-In . SVG Version: 6.00 Build 0)  -->
<svg version="1.1" id="Layer_1" xmlns="http://www.w3.org/2000/svg" xmlns:xlink="http://www.w3.org/1999/xlink" x="0px" y="0px"
	 viewBox="0 0 508.949 508.949" style="enable-background:new 0 0 508.949 508.949;" xml:space="preserve">
<rect x="325.171" y="141.055" style="fill:#F0582F;" width="67.476" height="226.84"/>
<rect x="221.075" y="237.69" style="fill:#6EB1E1;" width="67.476" height="130.204"/>
<g>
	<rect x="116.641" y="311.608" style="fill:#80C35B;" width="67.475" height="56.286"/>
	<path style="fill:#80C35B;" d="M245.489,0c-51.878,2.034-99.348,18.988-139.02,47.47l35.942,46.114
		c29.499-20.683,64.763-33.229,103.078-35.264V0z"/>
</g>
<path style="fill:#6EB1E1;" d="M127.83,104.774L91.889,58.66C39.332,102.4,4.747,166.824,0.339,239.386l58.66,1.356
	C62.728,186.49,88.498,138.003,127.83,104.774z"/>
<path style="fill:#F0582F;" d="M263.799,0v58.321c104.095,4.747,186.829,90.872,186.829,195.984
	c0,108.503-87.82,196.323-196.323,196.323c-24.074,0-47.47-4.408-68.832-12.546l-23.057,53.913
	c28.482,10.85,59.338,16.954,91.889,16.954c140.715,0,254.644-113.928,254.644-254.644C509.287,116.981,400.106,4.747,263.799,0z"/>
<path style="fill:#FBD303;" d="M168.858,430.962c-64.085-31.195-108.503-96.297-110.538-171.91L0,258.035
	c1.356,100.366,60.694,186.49,145.801,226.84L168.858,430.962z"/>
<g>
</g>
<g>
</g>
<g>
</g>
<g>
</g>
<g>
</g>
<g>
</g>
<g>
</g>
<g>
</g>
<g>
</g>
<g>
</g>
<g>
</g>
<g>
</g>
<g>
</g>
<g>
</g>
<g>
</g>
</svg>
