<?xml version="1.0" encoding="iso-8859-1"?>
<!-- Generator: Adobe Illustrator 19.0.0, SVG Export Plug-In . SVG Version: 6.00 Build 0)  -->
<svg version="1.1" id="Capa_1" xmlns="http://www.w3.org/2000/svg" xmlns:xlink="http://www.w3.org/1999/xlink" x="0px" y="0px"
	 viewBox="0 0 512 512" style="enable-background:new 0 0 512 512;" xml:space="preserve">
<path style="fill:#FFA000;" d="M303.04,272v237.44C288,511.04,272,512,256,512C114.56,512,0,447.68,0,368v-96H303.04z"/>
<path style="fill:#388E3C;" d="M512,224v144c0,70.72-89.92,129.28-208.96,141.44V224H512z"/>
<path style="fill:#64B5F6;" d="M390.08,21.44L256,144H0C0,64.32,114.56,0,256,0C305.28,0,351.04,7.68,390.08,21.44z"/>
<path style="fill:#81C784;" d="M512,208c0,70.72-89.92,129.28-208.96,141.44L256,208L390.08,85.44C463.36,110.72,512,156.16,512,208
	z"/>
<path style="fill:#FFD54F;" d="M303.04,413.44C288,415.04,272,416,256,416C114.56,416,0,351.68,0,272h256L303.04,413.44z"/>
<rect y="144" style="fill:#2196F3;" width="256" height="128"/>
<polygon style="fill:#1E88E5;" points="390.08,21.44 390.08,85.44 256,208 256,144 "/>
<polygon style="fill:#4CAF50;" points="256,208 256,272 303.04,413.44 303.04,349.44 "/>
<g>
</g>
<g>
</g>
<g>
</g>
<g>
</g>
<g>
</g>
<g>
</g>
<g>
</g>
<g>
</g>
<g>
</g>
<g>
</g>
<g>
</g>
<g>
</g>
<g>
</g>
<g>
</g>
<g>
</g>
</svg>
